<svg xmlns="http://www.w3.org/2000/svg" aria-hidden="true"
  style="position:absolute;width:0;height:0;overflow:hidden">
  <defs>
    <symbol id="location" viewBox="0 0 32 32">
      <path
        d="m16 24 1.6-3.2v-8.227c2.754-.715 4.8-3.2 4.8-6.173C22.4 2.87 19.53 0 16 0S9.6 2.87 9.6 6.4c0 2.973 2.046 5.458 4.8 6.173V20.8zM12.8 6.4c0-1.765 1.435-3.2 3.2-3.2s3.2 1.435 3.2 3.2-1.435 3.2-3.2 3.2-3.2-1.435-3.2-3.2" />
      <path
        d="m22.827 13.701-.853 3.085C26.12 17.932 28.8 20.135 28.8 22.4c0 3.027-5.256 6.4-12.8 6.4S3.2 25.427 3.2 22.4c0-2.266 2.68-4.469 6.827-5.616l-.853-3.085C3.515 15.264 0 18.597 0 22.4 0 27.782 7.029 32 16 32s16-4.218 16-9.6c0-3.803-3.515-7.136-9.173-8.699" />
    </symbol>
  </defs>
</svg>